<?xml version="1.0" encoding="UTF-8"?><svg id="Layer_1" xmlns="http://www.w3.org/2000/svg" viewBox="0 0 404.57 337.8"><defs><style>.cls-1{fill:none;}.cls-1,.cls-2{stroke:#000;stroke-miterlimit:10;}</style></defs><path class="cls-1" d="M182.8,181.11c0,14.78-11.99,26.76-26.77,26.76s-26.76-11.98-26.76-26.76,11.98-26.77,26.76-26.77,26.77,11.99,26.77,26.77Z"/><path class="cls-1" d="M275.3,181.11c0,14.78-11.99,26.76-26.77,26.76s-26.76-11.98-26.76-26.76,11.98-26.77,26.76-26.77,26.77,11.99,26.77,26.77Z"/><path class="cls-2" d="M338.67,311.78c0-7.17-2.92-13.67-7.61-18.37-4.71-4.69-11.2-7.61-18.37-7.61V116.94l12.99-38.97-38.97-51.96,12.99,51.96-25.98,38.97c-19.82-4.17-45.09-7.68-74.43-7.42-26.7,.23-49.88,3.51-68.45,7.42l-25.98-38.97,12.99-51.96-38.97,51.96,12.99,38.97v168.86c-7.17,0-13.67,2.92-18.37,7.61-4.69,4.71-7.61,11.2-7.61,18.37h64.95v-51.96h142.88v51.96h64.95Zm-182.65-103.92c-14.78,0-26.76-11.98-26.76-26.76s11.98-26.77,26.76-26.77,26.77,11.99,26.77,26.77-11.99,26.76-26.77,26.76Zm92.5,0c-14.78,0-26.76-11.98-26.76-26.76s11.98-26.77,26.76-26.77,26.77,11.99,26.77,26.77-11.99,26.76-26.77,26.76Z"/><path class="cls-1" d="M182.8,181.11c0,14.78-11.99,26.76-26.77,26.76s-26.76-11.98-26.76-26.76,11.98-26.77,26.76-26.77,26.77,11.99,26.77,26.77Z"/><path class="cls-1" d="M275.3,181.11c0,14.78-11.99,26.76-26.77,26.76s-26.76-11.98-26.76-26.76,11.98-26.77,26.76-26.77,26.77,11.99,26.77,26.77Z"/></svg>